<svg id="Layer_1" data-name="Layer 1" xmlns="http://www.w3.org/2000/svg" viewBox="0 0 627.25 220">
    <defs>
        <style>.cls-1,.cls-2{fill:#45b2e5;stroke:#45b2e5;stroke-miterlimit:10;}.cls-2{stroke-width:6px;}</style>
    </defs>
    <path class="cls-1" d="M303.52,138.55c0-11.77.19-25,.49-32.75h-.48c-3.24,14.07-10.13,37-16.75,58.61H274.09c-5-18.86-12.16-45-15.18-58.8h-.47c.59,8.09.88,22.28.88,34.1v24.7H245.73V95.46h22.19c5.37,18,11.4,40.62,13.47,50.89h.11c1.69-9.06,9.26-33.22,15-50.89H317.9v69H303.52Z" />
    <path class="cls-1" d="M381.87,134.67h-33v17.52h36.37l-1.77,12.22H334.43V95.46h48.89v12.22H348.9v14.78h33Zm.49-59.11L364.67,89.43H351.25L365,75.56Z" />
    <path class="cls-1" d="M412.4,107.68H391.45V95.46h56.74v12.22H427.32v56.73H412.4Z" />
    <path class="cls-1" d="M472.34,95.46v69H457.43V95.46Z" />
    <path class="cls-1" d="M536.27,134.67h-33v17.52h36.38l-1.77,12.22H488.82V95.46h48.89v12.22H503.29v14.78h33Z" />
    <path class="cls-1" d="M564.89,136.81v27.6H550.33V95.46h30.29c15,0,23.13,8.28,23.13,18.93,0,9.25-5,14.26-10,16.32,3.41,1.25,8.57,4.81,8.57,17.15v3.41c0,4.63,0,9.91,1,13.14H589.16c-1.22-3-1.44-8.16-1.44-15.48v-1c0-7.54-1.91-11.11-13-11.11Zm0-11.86h12.5c8.17,0,11.31-3.11,11.31-8.87,0-5.61-3.66-8.75-11-8.75H564.89Z" />
    <path class="cls-2" d="M126.11,65.92l-.19,116.94-16.24,9.44v11.79L144.18,184V72Z" />
    <path class="cls-2" d="M81,65.92q.39,58.58.77,117.14l15.66,9.44v11.79l-33.27-20V72.2Z" />
    <polygon class="cls-2" points="97.43 29.23 28.43 57.3 28.43 203.92 7.08 190.4 7.08 50.02 97.43 15.71 97.43 29.23" />
    <polygon class="cls-2" points="109.68 29.43 178.68 57.5 178.68 204.12 200.03 190.6 200.03 50.22 109.68 15.91 109.68 29.43" />
</svg>