<svg id="Layer_1" data-name="Layer 1" xmlns="http://www.w3.org/2000/svg" viewBox="0 0 500 220">
    <defs>
        <style>.cls-1,.cls-2{fill:#45b2e5;stroke:#45b2e5;stroke-miterlimit:10;}.cls-2{stroke-width:6px;}</style>
    </defs>
    <path class="cls-1" d="M281.11,113.29c0-8.47.13-18,.35-23.58h-.34c-2.34,10.13-7.3,26.67-12.06,42.2h-9.14c-3.62-13.58-8.75-32.42-10.93-42.33h-.34c.43,5.82.64,16,.64,24.55v17.78H239.5V82.27h16c3.87,13,8.21,29.24,9.7,36.64h.08c1.21-6.53,6.67-23.92,10.81-36.64h15.39v49.64H281.11Z" />
    <path class="cls-1" d="M337.52,110.5H313.78v12.61H340l-1.27,8.8H303.36V82.27h35.21v8.79H313.78V101.7h23.74Zm.35-42.57-12.73,10h-9.66l9.88-10Z" />
    <path class="cls-1" d="M359.5,91.06H344.42V82.27h40.86v8.79h-15v40.85H359.5Z" />
    <path class="cls-1" d="M402.66,82.27v49.64H391.92V82.27Z" />
    <path class="cls-1" d="M448.69,110.5H425v12.61h26.19l-1.28,8.8H414.53V82.27h35.2v8.79H425V101.7h23.74Z" />
    <path class="cls-1" d="M469.3,112v19.87H458.81V82.27h21.81c10.83,0,16.65,6,16.65,13.63,0,6.66-3.62,10.26-7.21,11.74,2.46.91,6.17,3.47,6.17,12.36v2.45c0,3.33,0,7.14.71,9.46H486.77c-.87-2.16-1-5.88-1-11.15V120c0-5.43-1.37-8-9.37-8Zm0-8.54h9c5.88,0,8.14-2.24,8.14-6.39s-2.64-6.3-7.88-6.3H469.3Z" />
    <path class="cls-2" d="M125.41,65.27l-.19,117L109,191.65v11.8l34.49-20v-112Z" />
    <path class="cls-2" d="M80.3,65.27l.78,117.15,15.65,9.44v11.79L63.47,183.6v-112Z" />
    <polygon class="cls-2" points="96.73 28.58 27.74 56.66 27.74 203.27 6.38 189.76 6.38 49.38 96.73 15.06 96.73 28.58" />
    <polygon class="cls-2" points="108.99 28.78 177.98 56.86 177.98 203.47 199.34 189.96 199.34 49.58 108.99 15.27 108.99 28.78" />
</svg>